<svg width="160" height="236" viewBox="0 0 160 236" fill="none" xmlns="http://www.w3.org/2000/svg">
<g clip-path="url(#clip0)">
<path d="M140.637 175.607C137.58 171.667 134.115 167.931 129.834 165.417C124.875 162.564 119.168 161.477 113.461 161.001C102.658 160.05 90.9045 161.409 82.6837 168.678C78.1316 172.754 75.0743 178.257 72.5605 183.895C69.5032 190.892 67.1932 198.636 68.8238 206.109C70.9299 215.688 79.2866 222.821 88.3907 226.082C97.4947 229.274 107.346 229.274 116.994 229.206C128.883 229.071 159.321 235.66 160 220.171C160.544 205.566 149.265 186.409 140.637 175.607Z" fill="#55C6FF"/>
<path d="M124.875 183.895C123.788 184.303 122.972 185.254 122.225 186.137C118.964 189.941 115.091 193.27 110.811 195.919C107.414 198.025 103.202 199.792 99.397 198.501C97.4268 197.821 95.8641 196.463 94.3694 195.104C88.7983 190.145 82.7516 183.691 84.3822 176.49C85.1295 173.162 80.5095 170.037 82.8195 167.455C99.8726 147.823 135.949 162.564 144.713 183.488C142.132 180.906 139.55 177.577 136.153 176.015C136.085 180.838 136.696 185.729 136.696 190.553C133.163 189.737 128.951 182.401 124.875 183.895Z" fill="white"/>
<path d="M124.875 183.827C124.128 184.099 123.584 184.574 123.04 185.118C122.497 185.661 122.089 186.273 121.546 186.816C120.527 187.903 119.508 188.99 118.421 189.941C116.246 191.911 113.801 193.745 111.287 195.24C108.773 196.802 106.055 198.093 103.202 198.365C101.775 198.501 100.348 198.297 99.1254 197.753C97.8345 197.21 96.6795 196.327 95.5925 195.376C93.3505 193.406 91.1764 191.436 89.274 189.194C87.3717 186.952 85.6732 184.507 84.9258 181.721C84.5182 180.363 84.3823 178.868 84.5861 177.441L84.722 176.355C84.722 176.151 84.7899 175.947 84.7899 175.743C84.7899 175.539 84.7899 175.336 84.722 175.132C84.5861 174.317 84.3144 173.637 83.9747 172.958C83.635 172.279 83.2952 171.599 82.9555 170.988C82.6158 170.308 82.412 169.629 82.412 168.95C82.412 168.27 82.8197 167.659 83.3632 167.184C83.9067 166.64 84.3823 166.097 84.9258 165.621C87.032 163.583 89.6137 161.953 92.3313 160.798C95.049 159.643 97.9704 158.964 100.892 158.76C103.813 158.488 106.803 158.624 109.724 159.099C112.646 159.575 115.499 160.322 118.285 161.341C123.788 163.379 129.019 166.3 133.503 170.037C137.987 173.773 141.86 178.393 144.17 183.759L145.257 183.012C143.898 181.721 142.675 180.227 141.249 178.936C139.822 177.645 138.259 176.355 136.425 175.539L135.609 175.2V176.015C135.609 178.46 135.813 180.906 136.017 183.352C136.221 185.797 136.425 188.175 136.493 190.621L136.764 190.349C135.677 190.077 134.726 189.398 133.843 188.65C132.96 187.903 132.077 187.088 131.193 186.341C130.31 185.593 129.359 184.846 128.34 184.235C127.253 183.691 125.962 183.42 124.875 183.827ZM124.875 183.963C125.962 183.555 127.185 183.827 128.204 184.439C129.223 184.982 130.106 185.729 130.99 186.545C131.873 187.36 132.688 188.175 133.571 188.922C134.455 189.669 135.406 190.485 136.629 190.824L136.9 190.892V190.553C136.968 188.107 136.832 185.661 136.764 183.284C136.697 180.838 136.629 178.46 136.697 176.015L135.881 176.49C137.512 177.238 138.939 178.46 140.297 179.751C141.588 181.11 142.879 182.536 144.238 183.895L146.684 186.409L145.325 183.148C144.17 180.363 142.539 177.713 140.637 175.336C138.735 172.958 136.629 170.784 134.251 168.882C129.563 165.078 124.195 162.089 118.488 160.186C112.781 158.284 106.667 157.333 100.688 158.013C97.6987 158.352 94.7772 159.1 91.9916 160.322C89.2061 161.545 86.6923 163.243 84.5182 165.213C83.9747 165.689 83.4311 166.3 82.9555 166.776L82.5479 167.184L82.2082 167.659C82.1403 167.863 82.0723 168.067 81.9364 168.203C81.8685 168.406 81.8685 168.61 81.8685 168.814C81.8685 169.629 82.1403 170.376 82.48 171.056C82.8197 171.735 83.1594 172.414 83.4311 173.094C83.7029 173.773 83.9747 174.452 84.0426 175.132C84.0426 175.336 84.0426 175.471 84.0426 175.675C84.0426 175.811 83.9747 176.015 83.9747 176.151C83.9067 176.49 83.8388 176.898 83.7708 177.238C83.567 178.732 83.635 180.295 83.9747 181.789C84.3144 183.284 84.9938 184.71 85.7411 186.001C86.4885 187.36 87.3717 188.583 88.3229 189.737C90.2931 192.047 92.4672 194.153 94.7093 196.123C95.8643 197.074 97.0872 198.093 98.5819 198.705C100.077 199.316 101.707 199.452 103.27 199.248C106.395 198.84 109.113 197.278 111.559 195.648C114.072 193.949 116.382 192.047 118.488 190.009C119.576 188.99 120.595 187.903 121.546 186.748C122.701 185.865 123.516 184.507 124.875 183.963Z" fill="black"/>
<path d="M33.9705 142.999C35.6011 138.38 37.4355 133.557 40.9684 130.16C46.1319 125.201 54.6924 124.454 60.6032 128.462C65.1552 131.519 67.8049 136.682 70.3187 141.573C84.9259 170.58 99.4652 199.52 114.072 228.527C114.888 230.09 115.703 231.992 115.024 233.622C114.072 235.932 110.947 236.136 108.501 236C89.6138 234.709 70.7264 233.35 51.8389 232.06C42.7348 231.448 33.6308 230.769 24.5947 230.158C19.703 229.818 4.82401 231.584 1.2911 227.44C-4.61974 220.511 12.1616 199.452 15.151 193.066C22.6924 176.898 28.0597 159.779 33.9705 142.999Z" fill="#7ECFFF"/>
<path d="M66.6511 145.581C65.0205 149.928 63.3899 154.276 61.6914 158.556C56.8676 156.314 57.9547 148.23 53.7424 144.969C51.6362 147.143 50.0736 149.86 49.2583 152.849C48.9186 151.423 45.9292 145.649 44.7063 146.26C43.4154 146.939 43.6192 153.597 42.4642 154.412C39.271 156.654 34.4472 154.955 32.409 151.559C30.3708 148.23 30.5067 143.814 31.7975 140.078C35.1266 130.092 45.6574 123.57 55.9844 123.91C59.0417 123.978 62.167 124.657 64.6129 126.491C67.6022 128.733 69.1649 132.469 70.5237 136.002C72.0863 139.942 73.9886 143.95 74.736 148.094C74.3283 148.162 66.2434 146.735 66.6511 145.581Z" fill="white"/>
<path d="M66.7175 145.513C65.9023 147.551 65.019 149.657 64.1358 151.83C63.6602 152.917 63.1846 154.004 62.7091 155.091L61.3502 158.42L61.9617 158.148C60.8067 157.605 59.9914 156.586 59.4479 155.499C58.8364 154.344 58.4288 153.121 58.0211 151.83C57.6135 150.54 57.2738 149.249 56.6623 147.958C56.1188 146.668 55.3035 145.445 54.1485 144.494L53.7409 144.154L53.3333 144.562C51.1592 146.803 49.5965 149.657 48.7812 152.714H49.8683C49.6645 152.102 49.4606 151.627 49.1889 151.083C48.9171 150.608 48.7133 150.064 48.4415 149.589C47.898 148.638 47.2865 147.687 46.5392 146.803C46.3354 146.6 46.1316 146.396 45.9277 146.192C45.656 145.988 45.3842 145.784 44.9086 145.784C44.6369 145.852 44.433 145.988 44.3651 146.124C44.2292 146.26 44.1613 146.396 44.0933 146.532C43.9574 146.803 43.8895 147.075 43.8216 147.347C43.5498 148.434 43.4819 149.521 43.346 150.608C43.2101 151.695 43.0742 152.782 42.7345 153.733C42.6666 153.868 42.5986 153.936 42.5307 154.004C42.4628 154.072 42.4627 154.072 42.3948 154.072L42.2589 154.208C42.0551 154.344 41.7833 154.48 41.5795 154.548L41.2398 154.684L40.8322 154.82C40.5604 154.887 40.2887 154.955 40.0848 154.955C37.9787 155.227 35.8046 154.412 34.2419 152.985C32.6114 151.627 31.7281 149.521 31.4564 147.415C31.1846 145.309 31.4564 143.135 31.9999 141.097C33.2228 137.021 35.7366 133.353 38.9978 130.567C42.191 127.782 46.1995 125.88 50.3439 124.997C52.45 124.589 54.5562 124.385 56.6623 124.453C58.7685 124.589 60.8747 124.997 62.7091 125.88C64.5435 126.763 66.0381 128.258 67.1931 130.024C68.3481 131.79 69.2314 133.76 70.0466 135.798C71.6772 139.874 73.7154 143.746 74.5987 147.958L74.9384 147.551C74.8704 147.551 74.5987 147.551 74.4628 147.483L73.9193 147.415L72.8322 147.279C72.1528 147.143 71.4055 147.007 70.726 146.871C70.0466 146.735 69.2993 146.532 68.6199 146.328C68.2802 146.192 67.9405 146.124 67.6008 145.988C67.4649 145.92 67.2611 145.852 67.1252 145.716C67.0573 145.649 66.9893 145.581 66.9214 145.581L66.8534 145.513C66.7175 145.716 66.7175 145.581 66.7175 145.513ZM66.6496 145.649C66.6496 145.716 66.5817 145.649 66.5817 145.716C66.5817 145.784 66.5817 145.852 66.6496 145.852C66.7176 145.92 66.7855 145.988 66.8534 146.056C66.9893 146.192 67.1931 146.26 67.329 146.328C67.6687 146.532 68.0084 146.668 68.3481 146.735C69.0275 147.007 69.7069 147.211 70.4543 147.415C71.1337 147.619 71.881 147.754 72.5604 147.958L73.6475 148.162L74.191 148.298C74.3948 148.298 74.5307 148.366 74.8025 148.366H75.1422L75.0742 147.958C74.3269 143.543 72.4925 139.535 70.9299 135.459C70.1146 133.421 69.2993 131.315 68.1443 129.413C66.9893 127.51 65.2908 125.744 63.1846 124.725C61.0785 123.706 58.8364 123.231 56.5944 123.095C54.3524 123.027 52.1103 123.163 49.8683 123.706C47.6942 124.182 45.588 124.997 43.5498 126.016C41.5795 127.035 39.6772 128.258 38.0466 129.752C34.7175 132.741 32.1358 136.613 31.0487 140.961C30.5052 143.135 30.3014 145.377 30.709 147.619C30.9128 148.706 31.2526 149.792 31.7281 150.811C32.2037 151.83 32.8831 152.714 33.7664 153.461C35.4649 154.887 37.7069 155.771 39.949 155.499C40.2207 155.431 40.4925 155.431 40.7642 155.363L41.1719 155.227L41.5795 155.091C41.8513 155.023 42.0551 154.82 42.3269 154.684L42.5307 154.548C42.5986 154.48 42.6666 154.412 42.7345 154.344C42.8704 154.208 42.9383 154.072 43.0063 153.936C43.4819 152.849 43.5498 151.763 43.7536 150.676C43.9574 149.589 44.0933 148.502 44.3651 147.483C44.433 147.211 44.501 147.007 44.6369 146.803C44.7048 146.6 44.9086 146.464 44.9086 146.464C44.9766 146.464 45.1804 146.532 45.3163 146.735C45.5201 146.871 45.656 147.075 45.8598 147.279C46.5392 148.094 47.0148 149.045 47.5583 149.996C47.8301 150.472 48.0339 150.947 48.2377 151.423C48.4415 151.898 48.6454 152.442 48.7812 152.849L49.2568 154.887L49.8683 152.849C50.6836 149.996 52.1783 147.415 54.2165 145.241L53.4012 145.309C54.3524 146.056 55.0318 147.143 55.5753 148.298C56.1188 149.453 56.5265 150.744 56.9341 152.034C57.3417 153.325 57.8173 154.616 58.4967 155.839C59.1761 157.061 60.1953 158.216 61.5541 158.828L62.0296 159.031L62.1655 158.624L63.2526 155.431C63.5923 154.344 63.9999 153.325 64.3396 152.238C65.019 150.2 65.7664 147.89 66.6496 145.649Z" fill="black"/>
<path d="M59.0415 122.959C58.0904 123.095 57.0713 123.231 56.1201 123.299C55.7804 123.366 55.3727 123.366 55.1689 123.095C55.033 122.891 54.9651 122.619 54.9651 122.415C54.8972 118.747 54.8292 115.146 54.8292 111.478C54.8292 111.138 57.9545 111.003 58.4301 111.206C59.3133 111.682 59.3133 112.429 59.4492 113.38C59.7889 116.437 59.2453 119.834 59.0415 122.959Z" fill="white"/>
<path d="M55.7792 123.638C55.9151 123.638 56.0509 123.638 56.1868 123.638L59.448 123.231V122.959C59.5159 122.076 59.5838 121.193 59.6518 120.242C59.8556 117.932 60.0594 115.554 59.7877 113.38V113.176C59.6518 112.361 59.5838 111.546 58.6327 111.003C58.1571 110.731 55.3716 110.799 54.7601 111.139C54.5563 111.274 54.4883 111.41 54.5563 111.546L54.6921 122.483C54.6921 122.755 54.6921 123.095 54.9639 123.366C55.0998 123.57 55.4395 123.638 55.7792 123.638ZM58.7686 122.619L56.1189 122.959C55.8471 122.959 55.5754 123.027 55.4395 122.891C55.3716 122.823 55.3715 122.619 55.3715 122.415L55.2357 111.682C55.7792 111.478 57.9533 111.41 58.293 111.546C58.9044 111.886 58.9724 112.429 59.1083 113.244V113.448C59.38 115.554 59.1762 117.932 58.9724 120.174C58.8365 120.989 58.7686 121.804 58.7686 122.619Z" fill="black"/>
<path d="M116.247 160.662C116.247 160.73 116.247 160.866 116.247 160.934C116.179 161.07 115.976 161.07 115.772 161.138C114.685 161.138 113.598 161.138 112.443 161.138C112.239 161.138 112.035 161.138 111.899 161.002C111.763 160.866 111.695 160.662 111.627 160.458C111.152 157.673 110.608 154.82 110.133 152.035C110.133 151.899 110.065 151.763 110.133 151.627C110.201 151.491 110.337 151.423 110.472 151.355C113.462 150.336 113.87 150.472 114.753 153.529C115.5 155.839 115.704 158.284 116.247 160.662Z" fill="white"/>
<path d="M113.393 161.409C114.208 161.409 114.955 161.409 115.771 161.409C115.907 161.409 116.314 161.409 116.518 161.07C116.586 160.866 116.586 160.73 116.586 160.594C116.382 159.643 116.246 158.692 116.042 157.741C115.771 156.314 115.567 154.888 115.159 153.393C114.684 151.831 114.344 150.948 113.665 150.608C112.917 150.2 111.898 150.54 110.471 151.015C110.335 151.083 110.064 151.151 109.928 151.423C109.792 151.627 109.86 151.899 109.86 152.034L111.355 160.458C111.422 160.662 111.422 161.002 111.694 161.205C111.966 161.409 112.238 161.409 112.442 161.409C112.781 161.409 113.053 161.409 113.393 161.409ZM115.907 160.73C115.907 160.73 115.839 160.73 115.771 160.73C114.684 160.73 113.597 160.73 112.442 160.73C112.306 160.73 112.17 160.73 112.102 160.662C112.034 160.594 112.034 160.458 111.966 160.322L110.471 151.899C110.471 151.831 110.471 151.763 110.471 151.695C110.471 151.695 110.607 151.627 110.675 151.627C112.102 151.151 112.917 150.948 113.325 151.151C113.8 151.423 114.072 152.17 114.48 153.529C114.887 154.956 115.091 156.382 115.363 157.741C115.567 158.76 115.703 159.711 115.907 160.73Z" fill="black"/>
<path d="M57.7589 115.648C58.2493 115.658 58.7484 115.718 59.2304 115.878C60.0909 111.863 59.7574 107.614 59.4202 103.318C59.3601 102.553 59.2999 101.785 59.2463 101.018C58.8811 95.7868 58.8298 90.5521 61.4598 85.9588L61.7479 85.4556L62.2033 85.8146C65.7296 88.5947 69.4016 91.1903 73.6504 92.4523C77.8988 93.6461 82.6753 93.2927 86.0427 90.6379L86.6103 90.1904L86.8289 90.8793C93.0789 110.578 99.4643 130.344 106.121 150.04L106.121 150.04L106.124 150.049C106.602 151.553 107.119 153.008 108.118 154.07L108.118 154.069L108.125 154.077C109.275 155.351 110.861 155.964 112.651 156.201C114.263 156.414 116.002 156.318 117.664 156.149C115.399 146.824 113.134 137.5 110.869 128.241L110.868 128.239C110.761 127.793 110.653 127.347 110.545 126.901C108.815 119.735 107.063 112.481 106.036 105.165C105.785 103.493 105.574 101.82 105.363 100.151C104.882 96.3426 104.403 92.5531 103.464 88.8435L103.464 88.8435L103.463 88.8393C102.789 86.0743 101.917 83.333 100.585 80.8022C100.144 79.9704 99.8104 79.3881 99.5059 78.9712C99.2062 78.561 98.9544 78.3394 98.6871 78.2043C98.4148 78.0665 98.0795 77.9943 97.5671 77.9631C97.1683 77.9388 96.6991 77.9405 96.1039 77.9426C95.9229 77.9432 95.7302 77.9439 95.5243 77.9439L95.5217 77.9439C83.34 77.8804 73.0955 73.5863 62.3427 69.0792C61.4767 68.7162 60.6074 68.3518 59.7335 67.9882C57.1989 66.9608 54.6368 66.0208 52.1731 66.6496C49.5493 67.4025 47.677 69.9329 47.0255 72.6685L47.0257 72.6686L47.0228 72.6794C46.343 75.2746 46.5935 77.995 46.8545 80.8289C46.87 80.9974 46.8855 81.1662 46.9009 81.3355C47.2065 84.2552 47.5121 87.1581 47.8177 90.0611C48.1234 92.9652 48.4292 95.8694 48.7349 98.7907C49.2794 103.827 49.8188 108.793 51.4934 113.482C51.7656 114.231 52.003 114.798 52.5104 115.249L52.5112 115.249C53.2762 115.932 54.3376 115.909 55.706 115.778C55.7925 115.77 55.8801 115.762 55.9687 115.753C56.5458 115.696 57.1626 115.635 57.7589 115.648Z" fill="white" stroke="black"/>
<path d="M89.4786 31.589C89.8862 31.1135 90.3618 30.7059 90.6336 30.1624C91.1771 29.1434 91.1771 27.9206 90.8374 26.7658C89.8183 23.3691 86.2174 20.9914 82.7525 21.3311C82.073 21.399 81.3936 21.5349 80.8501 21.9425C80.3745 22.2822 80.0348 22.7577 79.7631 23.2332C79.2875 24.1843 79.0837 25.3392 78.9478 26.4261C78.7439 27.7848 78.5401 29.1434 78.9478 30.4341C79.2875 31.7249 80.3745 32.9477 81.7333 33.0156C81.5975 35.5291 81.4616 38.1106 81.3257 40.6921C81.3257 41.5073 81.2578 42.3904 81.5295 43.2056C82.7524 47.0778 88.5274 46.3985 89.003 42.4583C89.3427 38.5861 85.9457 35.5291 89.4786 31.589Z" fill="white"/>
<path d="M89.546 31.6568C89.9536 31.1813 90.4292 30.7058 90.7689 30.1623C91.1086 29.5509 91.2445 28.8716 91.2445 28.2602C91.2445 26.9015 90.7689 25.6108 90.0895 24.4559C88.6628 22.1462 85.8772 20.6517 83.0237 20.8555C82.3443 20.8555 81.5969 21.0593 80.9855 21.3989C80.3061 21.7386 79.8305 22.35 79.4908 22.9614C78.8793 24.2521 78.8114 25.5428 78.6075 26.8336C78.4717 28.1243 78.2678 29.483 78.6755 30.7737C78.8793 31.453 79.219 32.0644 79.6946 32.54C80.1702 33.0155 80.8496 33.4231 81.5969 33.491L81.2572 33.0834C80.9855 35.7328 80.7816 38.3822 80.5778 41.0316C80.5778 41.7109 80.5099 42.4582 80.7137 43.2055C80.9175 43.9527 81.2572 44.7 81.8008 45.2435C82.9557 46.3983 84.7222 46.738 86.2169 46.3304C86.9642 46.1266 87.7116 45.719 88.2551 45.1755C88.7986 44.6321 89.2742 43.8848 89.4101 43.1375C89.7498 41.643 89.4101 40.2164 88.9345 38.9257C88.5269 37.635 87.9834 36.4122 87.9834 35.1214C87.9834 34.51 88.1192 33.8307 88.391 33.2193C88.7307 32.6758 89.0704 32.1324 89.546 31.6568ZM89.4101 31.521C88.5269 32.472 87.7795 33.7628 87.6437 35.1214C87.5078 36.4801 87.8475 37.8388 88.0513 39.1295C88.1872 39.8088 88.2551 40.4202 88.2551 41.0316C88.2551 41.643 88.2551 42.2544 88.0513 42.7979C87.7116 43.8848 86.8284 44.6321 85.7413 44.9038C84.6543 45.1755 83.4993 44.9038 82.684 44.2245C82.2763 43.8848 82.0046 43.4093 81.8687 42.8658C81.7328 42.3223 81.6649 41.7109 81.7328 41.0995C81.8008 38.4502 81.8687 35.8008 81.8687 33.1514V32.7438H81.529C80.374 32.7438 79.3549 31.7248 79.0152 30.5699C78.6076 29.415 78.7434 28.0564 78.9473 26.8336C79.1511 25.5428 79.4228 24.2521 80.0343 23.2331C80.374 22.7576 80.7816 22.35 81.2572 22.1462C81.7328 21.9424 82.3443 21.8744 82.9557 21.8744C85.3337 21.8744 87.6437 23.0293 89.2742 24.8635C89.6819 25.339 90.0216 25.8825 90.2933 26.426C90.5651 26.9694 90.7689 27.5808 90.8369 28.1922C90.9048 28.8036 90.8369 29.483 90.5651 30.0264C90.2933 30.6378 89.8857 31.0454 89.4101 31.521Z" fill="black"/>
<path d="M31.1848 7.47255C29.9619 9.17088 29.0107 11.0051 27.6519 12.5675C22.3526 19.0212 12.5012 20.0402 4.62008 17.2549C8.22093 23.7765 16.2379 27.5808 23.5076 26.1542C23.032 30.0943 17.8685 32.6078 14.4035 30.5698C20.2464 35.5969 30.1657 34.7138 34.9895 28.6677C36.688 26.4938 37.911 23.7765 40.2889 22.4179C43.618 20.5157 47.8982 21.8744 51.635 21.0592C51.8388 20.9913 52.1105 20.9233 52.2464 20.7195C52.3823 20.5157 52.3144 20.244 52.3144 20.0402C51.7029 16.1001 50.8876 12.2279 49.9364 8.42361C49.3929 6.24975 48.9853 2.44549 47.0829 1.01889C42.3271 -2.58157 33.8345 3.87208 31.1848 7.47255Z" fill="#FF710F"/>
<path d="M48.4418 0.679199C49.5289 6.38559 50.6159 12.092 51.635 17.7984C52.6541 23.5048 53.6732 29.2111 54.5565 34.9175C55.5076 40.6239 56.3229 46.3982 57.1382 52.1046C57.8856 57.879 58.7008 63.5854 59.3802 69.3597C59.1764 63.5854 58.7688 57.7431 58.1573 51.9688C57.5459 46.1944 56.7985 40.4201 55.9153 34.7137C54.9641 29.0073 53.945 23.233 52.6541 17.5946C51.4312 11.8882 50.0045 6.24972 48.4418 0.679199Z" fill="black"/>
<path d="M56.732 44.4284C55.8488 43.9529 55.7808 42.7301 56.0526 41.779C56.3923 40.828 56.9358 40.0128 57.0717 38.9938C57.2076 38.1106 56.8679 37.1596 56.1205 36.6161C55.4411 36.0726 54.3541 36.0726 53.6747 36.6161C52.9273 37.2954 52.8594 38.3824 52.9952 39.4014C53.1991 41.0318 53.6747 42.5942 54.4899 43.9529C54.8297 44.4964 55.4411 45.1078 55.9846 44.836C56.732 44.4964 56.3244 43.3415 55.8488 42.6622" fill="white"/>
<path d="M56.7986 44.4283C56.3909 44.1566 56.1871 43.681 56.1871 43.2734C56.1192 42.7979 56.1871 42.3903 56.3909 41.9148C56.7306 41.0316 57.3421 40.2164 57.478 39.1295C57.6139 38.0426 57.0703 36.9556 56.1871 36.4122C55.7115 36.1404 55.2359 36.0725 54.6924 36.0725C54.2168 36.1404 53.6733 36.4122 53.3336 36.8198C52.9939 37.2274 52.858 37.7708 52.79 38.3143C52.7221 38.8578 52.79 39.3333 52.858 39.8088C52.9939 40.8278 53.2656 41.7789 53.6053 42.73C53.8092 43.2055 54.013 43.6131 54.2847 44.0886C54.5565 44.4962 54.9642 44.9718 55.5756 45.1756C55.9153 45.2435 56.255 45.1076 56.4589 44.9038C56.6627 44.6321 56.7306 44.2924 56.6627 44.0886C56.5947 43.5452 56.255 43.1376 55.9153 42.73L55.8474 42.7979C56.1192 43.2055 56.255 43.681 56.255 44.0886C56.255 44.2924 56.1871 44.4962 56.0512 44.5642C55.9153 44.7 55.7795 44.7 55.5756 44.6321C55.2359 44.4962 54.9642 44.1566 54.7603 43.749C54.5565 43.3414 54.3527 42.9338 54.1489 42.4582C53.8092 41.5751 53.5374 40.692 53.3336 39.7409C53.1977 38.7898 53.0618 37.8388 53.5374 37.0915C53.7412 36.6839 54.1489 36.4122 54.6244 36.3442C55.1 36.2763 55.5756 36.3442 55.9833 36.616C56.7986 37.1594 57.0024 38.1784 56.7986 39.0616C56.5947 39.9447 56.0512 40.7599 55.7795 41.7789C55.6436 42.2544 55.6436 42.7979 55.7115 43.3414C55.9153 43.8169 56.255 44.2924 56.7986 44.4283Z" fill="black"/>
<path d="M103.407 79.8213C102.524 81.3158 100.553 82.131 98.855 81.7234C98.3115 81.5876 97.7679 81.3158 97.2244 81.4517C96.4091 81.5876 95.8656 82.4028 95.7977 83.218C95.7297 84.0332 96.0015 84.8484 96.2732 85.5956C96.545 86.3429 96.8168 87.0222 97.2923 87.6336C98.855 89.5358 102.252 88.9923 103.747 87.0902C105.241 85.188 105.377 82.4028 104.766 79.9572C104.086 80.093 103.475 80.2289 102.796 80.2968" fill="white"/>
<path d="M100.009 89.1282C100.077 89.1282 100.077 89.1282 100.009 89.1282C101.571 89.1282 103.066 88.3809 104.017 87.2261C105.444 85.4598 105.784 82.7425 105.104 79.8214L105.036 79.4817L103.406 79.8214L103.134 79.6855C103.066 79.7534 102.998 79.8214 102.998 79.9572L102.794 80.0252L102.862 80.229C101.911 81.3159 100.348 81.8594 98.9895 81.5197C98.8537 81.5197 98.7178 81.4518 98.5819 81.3838C98.1742 81.248 97.6987 81.1121 97.2231 81.18C96.204 81.3159 95.5925 82.3349 95.5246 83.218C95.4566 84.1012 95.7284 85.0522 96.0002 85.7315C96.2719 86.4109 96.5437 87.2261 97.0872 87.9054C97.6987 88.6527 98.7857 89.1282 100.009 89.1282ZM104.493 80.2969C105.036 82.8784 104.697 85.256 103.474 86.8185C102.658 87.8375 101.367 88.4489 100.077 88.4489C98.9895 88.4489 98.1063 88.1092 97.5628 87.362C97.0872 86.8185 96.8154 86.0712 96.6116 85.3919C96.4078 84.7125 96.0681 83.9653 96.136 83.1501C96.204 82.5387 96.6116 81.7914 97.291 81.7235C97.6307 81.6556 97.9704 81.7914 98.3781 81.9273C98.514 81.9952 98.6498 81.9952 98.7857 82.0632C100.484 82.4708 102.319 81.8594 103.406 80.5686L104.493 80.2969Z" fill="black"/>
<path d="M87.7111 38.7218C87.9149 38.0424 88.1187 37.431 88.2546 36.7517C94.9807 40.0125 101.299 44.1564 107.006 48.9118C108.501 50.1346 109.928 51.4932 111.083 53.0557C114.276 57.4713 114.616 63.5174 113.189 68.8162C111.762 74.115 108.841 78.8703 105.919 83.4898L101.503 80.6366C103.881 75.066 104.696 68.8841 103.813 62.906C103.066 57.9469 100.892 52.8519 96.4754 50.4742C98.7174 58.6941 100.008 67.1858 100.28 75.7454C100.348 77.9192 98.5136 79.7534 96.3395 79.6855C89.2737 79.4817 79.6261 79.8214 73.3077 76.6964C75.0062 70.9221 76.8406 62.4984 73.7153 57.3355C72.9 60.0528 71.6771 62.7022 70.1145 65.1478C69.6389 65.8951 69.0274 66.6423 68.1442 66.6423C67.3968 66.6423 66.8533 66.0309 66.3777 65.4875C62.9128 61.5473 59.4478 57.5393 55.9149 53.5992C54.2843 51.765 52.6537 49.7949 52.4499 47.3493C52.2461 44.9037 54.4881 42.2543 56.7981 42.9336C59.7875 48.0286 63.3883 52.784 67.6007 56.9279C64.6113 53.9388 70.9297 43.9526 72.8321 41.9826C77.5879 37.0234 79.1506 37.6348 82.072 40.0804C84.0423 41.7788 86.9637 41.0315 87.7111 38.7218Z" fill="#7ECFFF"/>
<path d="M90.7686 18.4776C88.7304 17.7303 86.0807 19.021 84.3822 17.7303C83.2951 16.9151 83.6348 16.5075 82.344 15.9641C81.0531 15.4206 79.6264 17.1189 78.879 18.2738C78.1317 19.4286 77.8599 20.8552 77.9958 22.2139C78.1317 23.2329 78.5393 24.2519 79.4225 24.6595C79.8302 24.8633 80.3737 24.9312 80.8493 24.8633C81.9363 24.7954 83.0234 24.5236 83.9746 24.0481C85.1975 23.4367 86.5563 22.4856 87.7113 23.2329C88.7983 23.9122 88.6625 25.4747 88.2548 26.6296C87.8472 27.8524 87.3716 28.9393 87.8472 30.1621C89.0022 29.8904 89.6816 28.8034 89.6816 27.6486C91.3121 28.6676 90.9724 30.5018 89.206 30.8414C96 32.6077 96.3397 20.5835 90.7686 18.4776Z" fill="black"/>
<path d="M55.168 121.261C54.5566 121.396 54.013 121.6 53.4695 121.872C50.7519 123.095 48.1022 124.318 45.3846 125.473C44.6372 125.812 43.754 126.356 43.8899 127.171C49.3931 127.511 54.8963 127.782 60.4674 127.918C60.6712 127.918 60.875 127.918 61.0109 127.782C61.0789 127.714 61.1468 127.578 61.1468 127.443C61.4186 126.084 61.7583 122.483 60.5353 121.464C59.6521 120.717 56.391 120.989 55.168 121.261Z" fill="black"/>
<path d="M111.286 158.828C111.218 159.915 111.218 161.002 111.286 162.089C111.286 162.428 111.354 162.836 111.558 163.108C111.898 163.583 112.645 163.651 113.257 163.583C117.945 163.447 122.7 162.836 127.185 164.195C127.117 163.583 127.049 162.904 126.981 162.293C127.049 162.768 119.439 158.896 118.964 158.76C116.79 157.945 113.664 158.76 111.286 158.828Z" fill="black"/>
</g>
<defs>
<clipPath id="clip0">
<rect width="160" height="236" fill="white" transform="matrix(-1 0 0 1 160 0)"/>
</clipPath>
</defs>
</svg>
